<svg xmlns="http://www.w3.org/2000/svg" id="logo" viewBox="0 0 768 768"><style>@media (prefers-color-scheme:dark){#background{fill:#0f1626}#d,#e,#v{fill:#f5f5f5}#greater,#less{fill:#ab987a}}</style><rect id="background" width="768" height="768" fill="#ab987a" stroke-width="0" rx="90" ry="90"/><g id="copy"><path id="greater" fill="#f5f5f5" stroke-width="0" d="M619.39 435.81v-19.36c0-1.47.37-2.8 1.1-4.01s1.94-2.26 3.63-3.14l39.93-20.57c3.23-1.61 7-2.93 11.33-3.96-2.13-.51-4.12-1.08-6-1.71-1.87-.62-3.65-1.38-5.33-2.25l-39.93-20.46c-1.69-.88-2.9-1.93-3.63-3.14a7.63 7.63 0 0 1-1.1-4.01v-19.36l87.12 45.43v11z"/><path id="v" fill="#0f1626" stroke-width="0" d="M547.05 458.91h-24.64l-44.88-112.86h22.55c1.98 0 3.65.48 5 1.43 1.36.95 2.29 2.16 2.81 3.63l21.78 60.28c1.25 3.52 2.29 6.97 3.14 10.34.84 3.37 1.59 6.75 2.25 10.12.66-3.37 1.41-6.75 2.25-10.12s1.92-6.82 3.25-10.34l22.33-60.28c.51-1.47 1.43-2.68 2.75-3.63s2.9-1.43 4.73-1.43h21.45z"/><path id="e" fill="#0f1626" stroke-width="0" d="M423.2 344.29c7.11 0 13.66 1.14 19.63 3.41 5.98 2.27 11.13 5.59 15.46 9.96 4.33 4.36 7.7 9.72 10.12 16.06s3.63 13.58 3.63 21.73c0 2.05-.09 3.76-.28 5.11-.18 1.36-.51 2.42-.99 3.19s-1.12 1.32-1.93 1.65-1.83.5-3.08.5h-69.74c.81 11.59 3.92 20.09 9.35 25.52s12.61 8.14 21.56 8.14c4.4 0 8.2-.51 11.39-1.54s5.98-2.16 8.36-3.41a202 202 0 0 0 6.27-3.41c1.8-1.03 3.54-1.54 5.22-1.54 1.1 0 2.05.22 2.86.66s1.5 1.06 2.09 1.87l7.92 9.9c-3.01 3.52-6.38 6.47-10.12 8.86-3.74 2.38-7.64 4.29-11.71 5.72s-8.21 2.44-12.43 3.02c-4.22.59-8.3.88-12.27.88-7.85 0-15.14-1.3-21.89-3.91-6.75-2.6-12.61-6.45-17.6-11.55s-8.91-11.4-11.77-18.92-4.29-16.23-4.29-26.12c0-7.7 1.25-14.94 3.74-21.73 2.49-6.78 6.07-12.69 10.73-17.71s10.34-9 17.05-11.93 14.28-4.4 22.72-4.4Zm.55 19.47c-7.92 0-14.12 2.24-18.59 6.71s-7.33 10.82-8.58 19.03h51.04c0-3.52-.48-6.84-1.43-9.96s-2.42-5.85-4.4-8.19c-1.98-2.35-4.47-4.2-7.48-5.56q-4.515-2.04-10.56-2.04Z"/><path id="d" fill="#0f1626" stroke-width="0" d="M330.58 458.91q-5.28 0-6.93-4.95l-2.2-10.89c-2.35 2.64-4.8 5.02-7.37 7.15a46.2 46.2 0 0 1-8.31 5.5c-2.97 1.54-6.16 2.73-9.57 3.58-3.41.84-7.09 1.27-11.06 1.27-6.16 0-11.81-1.28-16.94-3.85s-9.55-6.29-13.25-11.17q-5.55-7.32-8.58-18.09c-2.02-7.19-3.02-15.4-3.02-24.64 0-8.36 1.14-16.13 3.41-23.32s5.54-13.42 9.79-18.7 9.35-9.41 15.29-12.38 12.61-4.46 20.02-4.46q9.465 0 16.17 3.03a42.5 42.5 0 0 1 11.99 8.08v-59.62h27.17v163.46zM294.39 439c5.65 0 10.45-1.17 14.41-3.52s7.7-5.68 11.22-10.01v-50.6c-3.08-3.74-6.44-6.38-10.06-7.92s-7.54-2.31-11.71-2.31-7.83.77-11.17 2.31-6.16 3.87-8.47 6.99-4.09 7.08-5.33 11.88c-1.25 4.8-1.87 10.47-1.87 17s.53 12.19 1.6 16.77q1.59 6.87 4.56 11.22t7.26 6.27 9.57 1.92Z"/><path id="slash" fill="#ff533d" stroke-width="0" d="M178.41 459.24c-.66 1.69-1.5 3.15-2.53 4.4a14.9 14.9 0 0 1-3.52 3.13c-1.32.84-2.71 1.48-4.18 1.92q-2.205.66-4.29.66h-11.44l64.24-164.34c1.25-3.08 3.04-5.44 5.39-7.09s5.17-2.48 8.47-2.48h11.55l-63.69 163.79Z"/><path id="less" fill="#f5f5f5" stroke-width="0" d="m54.49 379.27 87.12-45.43v19.36c0 1.47-.37 2.81-1.1 4.02s-1.94 2.25-3.63 3.13l-39.93 20.46a36 36 0 0 1-5.33 2.25q-2.805.93-6 1.71c2.13.51 4.12 1.08 6 1.7 1.87.62 3.65 1.38 5.33 2.26l39.93 20.57c1.69.88 2.9 1.92 3.63 3.13s1.1 2.55 1.1 4.01v19.36l-87.12-45.54v-11Z"/></g></svg>